<svg width="1920" height="130" viewBox="0 0 1920 130" fill="none" xmlns="http://www.w3.org/2000/svg"><mask id="a" style="mask-type:alpha" maskUnits="userSpaceOnUse" x="0" y="0" width="1920" height="130"><path fill="#fff" d="M0 0h1920v130H0z"/></mask><g mask="url(#a)"><path d="M-71 49.011C3.278 42.856-32.198 31.865 42.394 30.12c164.19-23.984 377.629 19.294 516.311 19.796 128.196.463 387.269 16.427 387.269 16.427s151.706 2.513 226.496 5.668c176.94 7.463 352.79-29.387 527.53-49.047 49.94-5.619 181.8 19.419 231.35 10.735 37.91-6.64.95-43.563 38.81-34.955 15.79 3.591 25.06 16.884 31.64 26.506 19.23 7.41 39.21 12.726 59 18.234 8.5 2.366 18.03.507 26.17 4.064 1.52.667-14.35 2.389-15.39 2.464-44.29 3.22-85.21-1.233-129.58-1.528-75.92-.504-155.57 8.057-231.5 7.442-40.25-.326-80.7-10.04-120.96-9.789-21.12.132-36.31 22.594-57.23 25.874-38.54 18.934-83.29 3.633-120.95 13.592-194.68 28.38-342.94 62.544-518.276 54.089-69.039-3.329-136.865-22.253-205.06-32.691-27.287-4.176-59.238 3.567-86.653.493-29.296-3.285-54.206-13.698-83.596-14.21C420.82 91.595 333.039 113.982 236.987 107c-42.054 0-93.955-14.061-135.914-16.591-27.817-1.678-56.242-3.711-83.658 2.135-12.41 2.647-24.759 6.143-37.031 9.775-3.612 1.068-15.183 5.826-18.238 1.396-3.92-5.684-.042-16.077 4.282-20.042 9.293-8.521 25.83-24.92 37.507-27.187 13.525-2.627 24.764-5.996 38.459-5.996 47.85 0 87.919 2.144 135.755 2.957 95.986 1.63 205.542 9.369 301.115 20.698 61.915 7.34 106.685 18.4 184.178 17.742 36.285 2.761 71.896 10.349 108.398 10.349 105.981 0 205.877-8.07 311.7-16.634 98.35-7.958 162.42 4.392 261.14 0 35.29-1.57 107.9-13.914 143.28-13.783 23.07.086 70.24 11.02 93.18 7.987 31.13-4.117 76.46 2.713 107.36-2.995 42.54-7.856 76.36-39.876 116-49.563 52.17-12.747 95-11.113 125.85-4.247 44.44 9.887 28.39-1.753 49.32-3.23 31.93 6.415 59.77 11.816 86.6 32.13 10.08 7.63 35.78 24.392 14.75 33.24-39.16 16.481-88.97 11.746-130.28 11.746-54.42 0-104.29-6.615-158.6-1.829-60.64 5.347-104.32 15.414-162.64 31.956-140.85 39.948-295.21-31.472-440.06-33.73-107.45-1.676-180.16 28.361-287.353 20.698-77.213-5.52-184.382 29.13-261.649 25.709-41.956-1.857-70.193-29.978-111.958-35.155-23.525-2.916-75.063 24.834-98.286 19.96-21.139-4.437-41.954-11.341-62.686-17.496-32.299-9.588-50.304-26.728-83.817-27.654-26.925-.743-72.429 16.229-99.211 19.603-25.942 3.268-49.607.813-75.319 5.587-18.177 3.375-36.867 1.79-55.11 4.436-35.584 5.16-70.433 13.963-106.496 13.963-7.38 0-12.34 1.668-6.105-6.16 7.408-9.302 16.105-18.575 26.088-24.888 21.863-13.826 48.018-17.742 73.111-17.742 39.126 0 78.208-.514 117.121 4.436 63.522 8.08 128.399 15.418 192.452 14.785 61.55-.61 118.495-18.024 178.258-29.899 47.671-9.472 92.444-14.078 140.83-6.981 52.857 7.752 105.615 25.73 158.241 35.401 50.837 9.343 101.125 8.005 152.283 15.606 47.616 7.075 123.696 8.711 170.886-.493 49.88-9.73 69.25-5.913 119.94-5.913 46 0 95.02-5.728 140.7 0 34.11 4.275 63.25-3.286 97.54-3.286 27.94 0 61.4 2.608 89.1-2.743 31.1-6.006 71.81 5.931 102-3.775 24.99-8.034 43.1-5.076 69-9.142 33.6-5.273 54.24-12.664 87.67-8.91 10.86 1.22 50.92 1.484 61.68 3.588 13.04 2.547 30.83 2.343 43.81 4.992 14.65 2.993 39.02-10.469 53.86-10.469 22.82 0 4.67.216 27.34-2.546 15.64-1.906 31.4-4.436 47.18-4.436 4.36 0 16.87-2.24 13.08 0-14.07 8.328-33 11.99-48.05 17.906-30.53 11.993-62.57 17.886-93.41 28.963-30.51 10.954-37.32 6.411-69.66 8.792-11.38.838-39.98-3.243-50.74-6.028-29.54-7.648-65.57 8.293-95.76 7.028-59.33-2.485-98.26-15.831-171.5-7.039-32.86 0-69.05-2.95-101.31 3.039-34.1 6.331-101.2-6.193-135.71-3.039-35.08 3.206-46.96 25.709-82.24 25.709-106.03 0-203.43-1.999-309.266-7.885-62.79-3.492-125.601-6.43-188.487-7.31-54.197-.759-107.796-10.514-167.939-5.996-61.068 7.721-84.134-8.651-125.941-8.871-42.817-.225-76.913 10.021-119.773 10.021-54.207 0-111.551-7.381-165.685-1.15-21.685 2.495-39.65-.043-61.523 1.15-23.79 1.297-38.802-1.759-62.576 0-13.322.985-38.17 10.678-51.542 10.678-3.451 0-6.082-2.43-8.96-4.107-4.012-2.337-11.147-3.008-14.274-6.571-1.606-1.83-3.204-7.507-4.282-10.021-2.492-5.807-1.078-8.877 1.903-14.21 5.18-9.27 17.992-16.095 27.04-20.534 9.956-4.886 36.714-8.543 59.745-11.418 40.781 0 49.763-1.15 94.09 2.875 20.875 1.03 74.537 5.056 122.323 4.02 287.865-6.237 378.803 16.114 585.497 15.24 104.235-.44 181.23-15.006 285.13-23.285 102.52-8.169 212.83-2.666 315.66-2.319 93.18.315 165.94 6.268 259.12 8.344 25.81.575 70.28-8.71 94.4 1.997 10.17 4.514 19.36 11.906 28.86 17.677 8.53 5.176 27.24 12.049 36.7 14.785 16.42 4.753 29.49 11.411 46.26 8.428 35.9-6.385 68.97-17.667 104.97-24.116 18.18-3.256 35.38-8.995 53.13-13.882 9.93-2.732 22.91-6.038 30.93-13.306 11.84-10.728-3.93-25.526-12.29-31.227-.02-9.46-8.03-10.666-17.46-10.735-28.32-.207-64.85 41.224-93 44.14-83.16 8.614-163.22-23.44-246.61-18.92-82.64 4.48-168.67-1.282-251.21 4.678-86.84 6.27-177.48 6.243-264.48 6.243-65.33 0-126.41-5.676-191.74-4.19-74.419 1.695-149.081 12.617-223.512 14.21-99.962 2.141-199.343-.718-298.946-10.02-51.894-4.847-103.771-9.453-155.897-11.007-23.309-.695-46.628-2.827-69.939-2.957-19.642-.11-39.197-.66-58.679-3.614-25.098-3.804-47.768 5.548-73.068 3.614-28.617-2.186-53.338-29.706-81.734-34.005-33.648-5.094-64.77 0-94.07 8.871-14.246 0-34.752 18.964-46.666 25.134" stroke="#B7EC5D" stroke-width="2" stroke-linecap="round"/></g></svg>