<svg width="140" height="140" viewBox="0 0 140 140" fill="none" xmlns="http://www.w3.org/2000/svg"><path d="M17.897 42.272c3.306.846 4.23 1.3 7.162 1.3h21.96c20.083 0 42.497.352 60.677 0 6.633-.128 11.266.604 16.527-2.402 1.956-1.118 3.854-4.074 4.958-6.06 1.21-2.178 1.627-5.237.785-8.437-.942-3.58-3.132-6.707-6.294-8.09-5.137-2.248-5.748-1.399-9.916-1.91-4.912-.601-9.021.083-12.671.083h-8.264c-1.488 0-4.607-.082-4.607-.082s-9.774-.29-14.544-.29c-5.53 0-11.147-.005-16.658-.005-10.473 0-20.412-.852-30.851 0-6.032.492-10.896.592-14.324 5.509-2.389 3.427-2.754 7.162-2.203 10.467.607 3.646 2.203 5.51 4.516 7.684.616.58 1.235 1.318 3.747 2.233z" stroke="#B7EC5D" stroke-width="2.5" stroke-linecap="round"/><path d="M22.856 40.303c-.148 6.353-.014 17.769-.014 24.129v35.431c0 4.048-.266 11.382 1.7 16.231 3.065 7.562 10.132 7.417 16.747 7.417H69.2c5.26 0 10.527.372 15.805.372 5.43 0 14.302 1.067 19.385-.627 5.745-1.915 9.001-3.146 11.018-7.162 1.385-2.755 2.136-13.87 1.756-19.833-.292-4.592-.136-8.273 0-11.783.395-10.183-.1-17.314.358-26.03.14-2.645-.503-4.456-.358-7.08.136-2.446-.371-9.66-.371-12.065" stroke="#B7EC5D" stroke-width="2.5" stroke-linecap="round"/><path d="M55.93 70.904c1.245-.067 3.384.09 5.5-.295 2.732-.498 4.261-.228 6.602-.354 2.483-.133 4.031-.085 7.152-.383 4.94-.471 5.233-.115 8.26-.277" stroke="#B7EC5D" stroke-width="2.5" stroke-linecap="round"/></svg>