<svg width="140" height="140" viewBox="0 0 140 140" fill="none" xmlns="http://www.w3.org/2000/svg"><path d="M15 39.883c2.5 0 5.5-.09 5.5-.09s9.372-.219 13.506-.219h33.092c8.67 0 11.327.218 19.988.218 13.517 0 25.35.091 38.914.091" stroke="#B7EC5D" stroke-width="2.5" stroke-linecap="round"/><path d="M48.075 39c0-5.657-.169-12.26 0-17.903.033-1.088.394-2.12.436-3.19.055-1.391.401-1.066 2.963-1.498 2.098-.582 4.302-.372 6.494-.372 3.522 0 7.022-.025 10.529.18 1.586.093 3.196-.007 4.785.011 1.659.019 3.315.324 4.98.393 2.222.093 4.42.181 6.651.181 2.24 0 5.463-.31 7.64-.383 1.324-.044 1.041 5.376 1.126 6.496.246 3.23.321 7.304.321 10.536 0 1.858-.218 7.729-.218 9.549" stroke="#B7EC5D" stroke-width="2.5" stroke-linecap="round"/><path d="M30 35c0 1.187.219 8.32.219 9.535 0 2.363-.033 5.018.328 7.358.876 5.682.328 11.696.328 17.424 0 2.52.355 5.036.45 7.556.17 4.608.891 8.432 1.19 13.855.382 6.94-.169 10.859.28 17.794.315 4.895.995 11.868 2.107 13.609 1.111 1.741 8.478 1.631 9.567 1.631 3.571-.905 10.644 0 14.463 0 7.876 0 12.916-.501 20.767.11 4.713.368 9.352-.156 14.032-.332 2.926-.11 9.249.817 11.938-.394 2.01-.905 2.13-5.524 2.13-10.145 0-4.01.154-7.877.346-11.192.434-7.471.754-13.098 1.233-21.491.601-10.514.678-17.666.801-26.651.052-3.78.821-9.82.821-13.575" stroke="#B7EC5D" stroke-width="2.5" stroke-linecap="round"/><path d="M58.68 65.447c0 3.368.6 6.73.873 10.085.483 5.908.437 11.87.437 17.794 0 4.607.218 9.188.218 13.795m20.744-39.935c-.453 9.727-.477 19.439-.704 29.162-.04 1.695.28 3.367.199 5.106" stroke="#B7EC5D" stroke-width="2.5" stroke-linecap="round"/></svg>