<svg width="140" height="140" viewBox="0 0 140 140" fill="none" xmlns="http://www.w3.org/2000/svg"><path d="M22.057 12.45c1.333-1.352 5.248-2.6 8.033-3.172 3.383-.697 7.097-.481 10.542-.446 9.67.098 22.976-.045 32.632 0 17.967.083 20.923-.776 31.627.446 10.705 1.221 12.845 2.422 17.576 8.141 3.007 3.634 3.838 14.055 3.838 17.615v37.64c0 11.197.675 17.745-.329 32.802-.637 4.385-.48 9.938-2.51 13.804-3.817 7.269-14.057 10.931-18.575 10.931H79.79c-12.98 0-19.077 1.075-32.13 1.075-9.75 0-15.822.89-22.089-2.688-5.632-3.216-8.032-5.915-11.044-12.906-1.854-4.301-1.42-10.471-1.528-12.367-.331-5.86.18-11.258-.032-17.153-.494-13.746-.77-27.769.032-41.504.538-9.22-.793-16.352 2.989-24.69 1.338-4.302 4.748-6.188 6.07-7.528z" stroke="#B7EC5D" stroke-width="2.5" stroke-linecap="round"/><path d="M8 100.636c10.04-10.69 16.39-19.994 23.04-25.814 2.664-2.332 5.624-4.188 8.535-6.13 1.389-.927 2.83-1.795 4.441-2.159 1.523-.343 3.123-.822 4.665-.186 2.82 1.162 4.93 4.249 6.78 6.663 2.265 2.952 4.25 6.524 5.711 9.994a336.783 336.783 0 003.055 6.942s3.342 5.313 4.518 6.877c.557.74 3.757 1.421 4.518 1.125 3.433-1.337 3.512-1.14 6.024-3.83.997-1.068 3.454-4.171 5.523-6.387 1.506-1.613 3.695-3.694 6.022-4.94 2.245-1.203 5.215-1.086 7.532 0 3.238 1.517 4.862 3.228 7.397 5.943 2.817 3.017 6.054 5.812 9.43 8.089 1.233.831 2.709 1.605 4.068 2.198.986.43 1.696.54 4.709 1.615 3.116 1.113 4.532 2.749 8.032 3.227M78.939 42.33c-1.196 1.707-1.605 4.16-1.66 6.967-.041 2.102.75 5.325.75 5.325.285 1.681 3.441 5.194 4.886 5.686 1.641.558 3.197 1.715 4.906 1.848 2.552.199 4.971.55 7.029-.773 5.02-3.226 6.251-6.092 6.526-11.83.146-3.048-.785-5.012-2.51-7.528-2.738-3.994-6.025-5.377-10.585-5.697-2.348-.165-4.579.748-6.484 2.47-1.326 1.199-1.822 2.05-2.858 3.532z" stroke="#B7EC5D" stroke-width="2.5" stroke-linecap="round"/></svg>