<svg width="136" height="136" viewBox="0 0 136 136" fill="none" xmlns="http://www.w3.org/2000/svg"><circle cx="68" cy="68" r="67" fill="#4D4D4D" stroke="#B7EC5D" stroke-width="2"/><path d="M62.2 46.66c.646-5.006-.037-9.855.864-14.814.497-1.49 4.964-.993 4.964-.993s3.445.496 4.467.496c1.17 0 .439 10.153.496 11.417.233 5.125.39 6.736.39 11.878 0 3.538-.201 5.99 0 7.895 0 1.073 5.1 1.021 6.063 1.073 3.4.184 6.209.33 9.805.33s6.431-.182 10.545 0c2.326.103 3.793-.361 5.057 0 .489.14.403 4.634.403 4.634s-.354 3.57-.403 5.388c-.016.561.013 1.003-.702 1.003-6.926 0-13.878.178-20.802-.011-1.194-.033-9.966-1.58-9.966-.279 0 1.961.21 4.05-.1 5.98-.25 1.542-.101 3.173-.101 4.733 0 1.868.38 3.182.1 5.025.1 1.895-.49 4.578-.1 8.438.2 1.986.473 5.117-.39 5.98-.54.541-3.488 0-4.198 0-.812 0-1.582.201-2.405.201-.482 0-3.522.313-3.123-.646.255-.611.1-1.54.1-2.205 0-2.061-.236-4.263 0-6.308.404-3.481-.436-6.999-.1-10.485.357-3.702.1-6.989.1-10.713 0-.825-.855-1.359-1.759-1.359h-3.603c-5.612 0-8.119.045-13.731.045-2.294 0-.909-.044-3.203-.044h-7.585c-.649 0-1.968-.17-2.138-.468-.297-.52-.435-1.088-.344-1.793.2-1.545.167-3.668.2-5.512.01-.485-.135-2.606.502-2.606h6.054c2.156 0 5.088-.2 10.166-.2 4.587 0 9.286.304 13.831-.201.873-.097.401-4.564.401-5.234 0-3.496-.202-7.179.245-10.646z" stroke="#B7EC5D" stroke-width="2.5" stroke-linecap="round"/></svg>