<svg width="40" height="40" viewBox="0 0 40 40" fill="none" xmlns="http://www.w3.org/2000/svg"><path fill-rule="evenodd" clip-rule="evenodd" d="M16.811 16.62c-.745.655-1.731 1.74-2.733 3.251-1.318 1.988-2.517 4.498-3.17 7.28a3.5 3.5 0 11-6.815-1.601c.868-3.695 2.438-6.963 4.15-9.547 1.676-2.527 3.643-4.629 5.475-5.805 2.094-1.345 5.039-1.88 7.456.128 2.048 1.7 2.665 4.447 2.665 6.944 0 1.057-.145 2.045-.286 2.851-.069.393-.128.705-.181.982-.034.176-.065.338-.094.5a25.143 25.143 0 001.714-2.268c1.176-1.73 2.263-3.647 3.067-5.161a71.448 71.448 0 001.255-2.48l.014-.03.003-.005a3.5 3.5 0 016.34 2.968l-3.17-1.484 3.17 1.485-.01.019-.021.045a37.872 37.872 0 01-.364.75 78.372 78.372 0 01-1.035 2.017c-.865 1.628-2.085 3.79-3.461 5.813-1.309 1.924-3.01 4.106-4.902 5.413-.954.66-2.345 1.37-4.014 1.314-1.872-.064-3.345-1.058-4.333-2.384-1.707-2.293-1.513-4.832-1.277-6.433.073-.499.188-1.108.284-1.618.046-.248.089-.472.12-.65.118-.675.18-1.194.18-1.644 0-.244-.01-.46-.027-.65zm4.865 6.439l.015-.006a.082.082 0 01-.015.006z" fill="#F93819"/></svg>