<svg width="40" height="40" viewBox="0 0 40 40" fill="none" xmlns="http://www.w3.org/2000/svg"><path fill-rule="evenodd" clip-rule="evenodd" d="M16.81 16.62c-.744.655-1.73 1.74-2.732 3.25-1.318 1.988-2.517 4.497-3.17 7.279a3.5 3.5 0 11-6.815-1.6c.868-3.695 2.438-6.963 4.15-9.547 1.676-2.526 3.643-4.628 5.474-5.804 2.095-1.345 5.039-1.88 7.456.128 2.048 1.7 2.665 4.447 2.665 6.944 0 1.056-.145 2.044-.286 2.85-.069.393-.128.704-.181.982-.034.176-.065.338-.094.5a25.154 25.154 0 001.714-2.268c1.176-1.73 2.263-3.646 3.067-5.16a70.98 70.98 0 001.255-2.48l.014-.03.002-.005a3.5 3.5 0 016.34 2.967l-3.17-1.483 3.17 1.484-.01.02-.02.045-.078.162a77.906 77.906 0 01-1.321 2.603c-.865 1.629-2.086 3.791-3.461 5.813-1.31 1.925-3.01 4.106-4.902 5.413-.954.66-2.345 1.37-4.013 1.314-1.873-.064-3.346-1.058-4.334-2.384-1.707-2.293-1.513-4.831-1.277-6.433.073-.498.188-1.107.284-1.617.047-.248.089-.472.12-.65.118-.674.181-1.193.181-1.643 0-.244-.01-.46-.027-.65zm4.865 6.438z" fill="#06F"/></svg>