<svg width="42" height="40" viewBox="0 0 42 40" fill="none" xmlns="http://www.w3.org/2000/svg"><path fill-rule="evenodd" clip-rule="evenodd" d="M18.21 18.169c-.652.53-1.515 1.407-2.392 2.63-1.153 1.61-2.202 3.641-2.774 5.893-.386 1.523-2.035 2.468-3.681 2.11-1.647-.357-2.668-1.882-2.281-3.405.759-2.991 2.132-5.637 3.631-7.728 1.466-2.046 3.187-3.747 4.79-4.7 1.832-1.088 4.409-1.521 6.524.104 1.791 1.377 2.33 3.6 2.33 5.622 0 .855-.126 1.654-.25 2.307-.06.318-.111.57-.158.795l-.082.404a20.61 20.61 0 001.5-1.835c1.03-1.4 1.98-2.952 2.684-4.178a56.221 56.221 0 001.098-2.007l.012-.024.002-.004c.717-1.417 2.54-2.029 4.072-1.365 1.532.663 2.192 2.35 1.476 3.767l-2.774-1.201c2.774 1.2 2.773 1.2 2.773 1.201l-.008.016-.018.037a27.038 27.038 0 01-.319.606c-.215.403-.524.969-.905 1.633-.757 1.318-1.825 3.068-3.029 4.705-1.145 1.558-2.633 3.324-4.289 4.382-.835.534-2.052 1.11-3.511 1.063-1.639-.051-2.928-.855-3.792-1.93-1.493-1.855-1.324-3.91-1.118-5.207.065-.403.165-.896.249-1.309.04-.2.078-.382.105-.525.103-.547.158-.967.158-1.331 0-.198-.009-.373-.024-.526zm4.256 5.21l.013-.004a.079.079 0 01-.013.005z" fill="#000"/><path d="M37.011 18.628a64.673 64.673 0 01-.95 1.713c-.786 1.368-1.916 3.225-3.213 4.988-1.184 1.611-2.942 3.76-5.09 5.133-1.092.698-2.915 1.607-5.222 1.534-2.646-.084-4.71-1.403-6.034-3.047a8.78 8.78 0 01-.703-1.01c-1.033 2.933-4.195 4.42-7.073 3.795-3.1-.674-5.406-3.71-4.552-7.076.865-3.408 2.42-6.39 4.1-8.737 1.62-2.259 3.627-4.3 5.696-5.53 2.463-1.464 6.455-2.332 9.885.303a8.332 8.332 0 012.3 2.731l.074-.136.536.287m10.246 5.052l-10.524-5.83s0 0 0 0 0 0 0 0h0l-.008.016-.001.001-.046.09-.203.384.536.287m10.246 5.052c.114-.213.204-.384.267-.507l-.267.507zm-10.246-5.052c.463.915 1.096 1.46 1.758 1.774 0 0 0 0 0 0-.811-.459-1.345-1.17-1.663-1.723m-.095-.051l.095.05m-.095-.05s0 0 0 0m.095.05l1.884 1.007-1.884-1.006m0 0s0 0 0 0m0 0a5.19 5.19 0 01-.324-.668 2.338 2.338 0 01-.05-.138l-.009-.004a7.2 7.2 0 01-.015.031 5.996 5.996 0 00.303.728m.095.05l-.095-.05m10.618 4.341l-.006.012-.003.006-.019.037-.001.003-.076.146.105-.204zm0 0l.002-.003-.002.003zm.003-.005l.002-.003c1.565-3.095.013-6.587-2.961-7.874-2.868-1.242-6.447-.183-7.939 2.76h0l10.898 5.117zm-10.865-5.18c1.4-.434 2.47-.231 3.272.218-1.568-.737-3.292-.18-3.296-.172l-.002.004.026-.05zm-.036.085l-.006-.003.003-.007.003.01z" stroke="#B7EC5D" stroke-opacity=".3" stroke-width="6" stroke-linecap="round" stroke-linejoin="round"/><path d="M36.495 17.459v-.002c1.283-2.535.028-5.425-2.465-6.505-2.423-1.049-5.417-.139-6.65 2.296l-.001.001m0 0s0 0 0 0h0zm-9.38 4.073l.002.003" fill="#000" stroke="#B7EC5D" stroke-width="4" stroke-linecap="round" stroke-linejoin="round"/><path d="M28.355 13.903c.098.19.287.475.596.65m-.596-.65l.596.65m-.596-.65a1.589 1.589 0 01-.074-.165l-.014-.007m.088.172l-.088-.172m.684.822c-.237-.113-.464-.314-.62-.663a1.92 1.92 0 01-.064-.159m.684.822l-.684-.822m-2.91 4.908c-.009-2.145-.59-4.72-2.721-6.359-2.553-1.962-5.601-1.384-7.644-.17-1.758 1.045-3.575 2.86-5.092 4.976-1.56 2.177-2.993 4.935-3.787 8.065-.543 2.137.907 4.166 3.038 4.628 2.11.46 4.328-.736 4.863-2.841.536-2.113 1.525-4.032 2.617-5.556.07-.098.14-.195.211-.288-.04.209-.078.418-.108.61-.217 1.36-.446 3.789 1.326 5.99 1.017 1.265 2.565 2.24 4.54 2.303 1.741.055 3.16-.631 4.081-1.22 1.82-1.164 3.398-3.057 4.556-4.632 1.234-1.68 2.323-3.466 3.09-4.8.34-.593.625-1.11.837-1.505l.014.006.416-.822.008-.016h0v-.002c1-1.976.043-4.265-1.97-5.136-1.977-.856-4.386-.095-5.36 1.831h-.001v.001h0l-.001.002h0l-.011.021-.052.101c-.047.091-.12.23-.214.406l.882.471-.882-.471c-.19.354-.466.86-.81 1.458l.743.426-.742-.426a49.689 49.689 0 01-1.826 2.949zm2.913-4.935l.01.033-.013-.007-.004-.012.007-.014zm1.102.047c-.52-.244-1.092-.06-1.098-.057l.008-.015c.466-.144.823-.077 1.09.072z" fill="#000" stroke="#F93819" stroke-width="2" stroke-linecap="round"/><path fill-rule="evenodd" clip-rule="evenodd" d="M18.21 18.169c-.652.53-1.515 1.407-2.392 2.63-1.153 1.61-2.202 3.641-2.774 5.893-.386 1.523-2.035 2.468-3.681 2.11-1.647-.357-2.668-1.882-2.281-3.405.759-2.991 2.132-5.637 3.631-7.728 1.466-2.046 3.187-3.747 4.79-4.7 1.832-1.088 4.409-1.521 6.524.104 1.791 1.377 2.33 3.6 2.33 5.622 0 .855-.126 1.654-.25 2.307-.06.318-.111.57-.158.795l-.082.404a20.61 20.61 0 001.5-1.835c1.03-1.4 1.98-2.952 2.684-4.178a56.221 56.221 0 001.098-2.007l.012-.024.002-.004c.717-1.417 2.54-2.029 4.072-1.365 1.532.663 2.192 2.35 1.476 3.767l-2.774-1.201c2.774 1.2 2.773 1.2 2.773 1.201l-.008.016-.018.037a27.038 27.038 0 01-.319.606c-.215.403-.524.969-.905 1.633-.757 1.318-1.825 3.068-3.029 4.705-1.145 1.558-2.633 3.324-4.289 4.382-.835.534-2.052 1.11-3.511 1.063-1.639-.051-2.928-.855-3.792-1.93-1.493-1.855-1.324-3.91-1.118-5.207.065-.403.165-.896.249-1.309.04-.2.078-.382.105-.525.103-.547.158-.967.158-1.331 0-.198-.009-.373-.024-.526zm4.256 5.21l.013-.004a.079.079 0 01-.013.005z" fill="#fff"/></svg>