<svg width="42" height="40" viewBox="0 0 42 40" fill="none" xmlns="http://www.w3.org/2000/svg"><path fill-rule="evenodd" clip-rule="evenodd" d="M18.21 17.169c-.652.53-1.515 1.407-2.392 2.63-1.153 1.61-2.202 3.641-2.774 5.893-.386 1.523-2.035 2.468-3.681 2.11-1.647-.357-2.668-1.882-2.281-3.405.759-2.991 2.132-5.637 3.631-7.728 1.466-2.046 3.187-3.747 4.79-4.7 1.832-1.088 4.409-1.521 6.524.104 1.791 1.377 2.33 3.6 2.33 5.622 0 .855-.126 1.654-.25 2.307-.06.318-.111.57-.158.795l-.082.404a20.61 20.61 0 001.5-1.835c1.03-1.4 1.98-2.952 2.684-4.178a56.221 56.221 0 001.098-2.007l.012-.024.002-.004c.717-1.417 2.54-2.029 4.072-1.365 1.532.663 2.192 2.35 1.476 3.767l-2.774-1.201c2.774 1.2 2.773 1.2 2.773 1.201l-.008.016-.018.037a27.038 27.038 0 01-.319.606c-.215.403-.524.969-.905 1.633-.757 1.318-1.825 3.068-3.029 4.705-1.145 1.558-2.633 3.324-4.289 4.382-.835.534-2.052 1.11-3.511 1.063-1.639-.051-2.928-.855-3.792-1.93-1.493-1.855-1.324-3.91-1.118-5.207.065-.403.165-.896.249-1.309.04-.2.078-.382.105-.525.103-.547.158-.967.158-1.331 0-.198-.009-.373-.024-.526zm4.256 5.21l.013-.004a.079.079 0 01-.013.005z" fill="#000"/><path d="M37.011 17.628a64.673 64.673 0 01-.95 1.713c-.786 1.368-1.916 3.225-3.213 4.988-1.184 1.611-2.942 3.76-5.09 5.133-1.092.698-2.915 1.607-5.222 1.534-2.646-.084-4.71-1.403-6.034-3.047a8.78 8.78 0 01-.703-1.01c-1.033 2.933-4.195 4.42-7.073 3.795-3.1-.674-5.406-3.71-4.552-7.076.865-3.408 2.42-6.39 4.1-8.737 1.62-2.259 3.627-4.3 5.696-5.53 2.463-1.464 6.455-2.332 9.885.304a8.332 8.332 0 012.3 2.73l.074-.136.536.287m10.246 5.052l-10.524-5.83s0 0 0 0 0 0 0 0h0l-.008.016-.001.001-.046.09-.203.384.536.287m10.246 5.052c.114-.213.204-.384.267-.507l-.267.507zm-10.246-5.052c.463.915 1.096 1.46 1.758 1.774 0 0 0 0 0 0-.811-.459-1.345-1.17-1.663-1.723m-.095-.051l.095.05m-.095-.05s0 0 0 0m.095.05l1.884 1.007-1.884-1.006m0 0s0 0 0 0m0 0a5.19 5.19 0 01-.324-.668 2.338 2.338 0 01-.05-.138l-.009-.004a7.2 7.2 0 01-.015.031 5.996 5.996 0 00.303.728m.095.05l-.095-.05m10.618 4.341l-.006.012-.003.006-.019.037-.001.003-.076.146.105-.204zm0 0l.002-.003-.002.003zm.003-.005l.002-.003c1.565-3.095.013-6.587-2.961-7.874-2.868-1.242-6.447-.183-7.939 2.76h0l10.898 5.117zm-10.865-5.18c1.4-.434 2.47-.231 3.272.218-1.568-.737-3.292-.18-3.296-.172l-.002.004.026-.05zm-.036.085l-.006-.003.003-.007.003.01z" stroke="#B7EC5D" stroke-opacity=".3" stroke-width="6" stroke-linecap="round" stroke-linejoin="round"/><path d="M36.495 16.459v-.002c1.283-2.535.028-5.425-2.465-6.505-2.423-1.049-5.417-.139-6.65 2.296l-.001.001m0 0s0 0 0 0h0zm-9.38 4.073l.002.003" fill="#000" stroke="#B7EC5D" stroke-width="4" stroke-linecap="round" stroke-linejoin="round"/><path d="M28.257 13.373l-.264-.141.214-.406.01.005-.01-.005.052-.1s0 0 0 0l.01-.022h.001v-.002h.001c.975-1.927 3.384-2.688 5.361-1.832 2.013.871 2.97 3.16 1.97 5.136v.002h0l-.008.016-.416.822-.014-.006a62.59 62.59 0 01-.837 1.505l-.867-.498.867.498c-.767 1.334-1.856 3.12-3.09 4.8-1.158 1.575-2.736 3.468-4.556 4.632-.92.589-2.34 1.275-4.082 1.22-1.974-.062-3.522-1.038-4.539-2.302-1.772-2.202-1.543-4.63-1.326-5.992.03-.191.068-.4.108-.61-.07.095-.14.19-.211.29-1.092 1.523-2.081 3.442-2.617 5.555-.535 2.105-2.752 3.3-4.863 2.841-2.131-.462-3.581-2.491-3.038-4.628.794-3.13 2.228-5.888 3.787-8.065 1.517-2.117 3.334-3.931 5.092-4.976 2.043-1.214 5.09-1.792 7.644.17 2.131 1.638 2.712 4.214 2.722 6.359a49.689 49.689 0 001.826-2.949l.867.498-.867-.498c.343-.597.62-1.104.809-1.458l.264.14zm0 0c.012.02.026.038.041.058a1.362 1.362 0 01-.122-.405 1.59 1.59 0 00-.012.143.619.619 0 00.093.204zm-.049-.515a1.58 1.58 0 00-.007.022l.007-.022zm.019-.055l-.007.017.004-.01c0-.003.002-.005.003-.007zm.01-.028l-.005.015.004-.012.001-.003zm1.34-.532c.055.044.105.094.151.147a2.935 2.935 0 00-.112.114 1.603 1.603 0 00-.61-.249 1.59 1.59 0 01.572-.012zm-1.132.214a.26.26 0 01.043-.03c-.035.03-.064.057-.082.075l.039-.045zm-.094.112a.488.488 0 01-.008.011l.008-.01zm-.028.042a.27.27 0 01.004-.007l-.006.01.002-.003zm-.014.022l.002-.003-.003.005.001-.002zm7.194 3.567s0 0 0 0l-.875-.454.875.454z" fill="#000" stroke="#06F" stroke-width="2" stroke-linecap="round"/><path fill-rule="evenodd" clip-rule="evenodd" d="M18.21 17.169c-.652.53-1.515 1.407-2.392 2.63-1.153 1.61-2.202 3.641-2.774 5.893-.386 1.523-2.035 2.468-3.681 2.11-1.647-.357-2.668-1.882-2.281-3.405.759-2.991 2.132-5.637 3.631-7.728 1.466-2.046 3.187-3.747 4.79-4.7 1.832-1.088 4.409-1.521 6.524.104 1.791 1.377 2.33 3.6 2.33 5.622 0 .855-.126 1.654-.25 2.307-.06.318-.111.57-.158.795l-.082.404a20.61 20.61 0 001.5-1.835c1.03-1.4 1.98-2.952 2.684-4.178a56.221 56.221 0 001.098-2.007l.012-.024.002-.004c.717-1.417 2.54-2.029 4.072-1.365 1.532.663 2.192 2.35 1.476 3.767l-2.774-1.201c2.774 1.2 2.773 1.2 2.773 1.201l-.008.016-.018.037a27.038 27.038 0 01-.319.606c-.215.403-.524.969-.905 1.633-.757 1.318-1.825 3.068-3.029 4.705-1.145 1.558-2.633 3.324-4.289 4.382-.835.534-2.052 1.11-3.511 1.063-1.639-.051-2.928-.855-3.792-1.93-1.493-1.855-1.324-3.91-1.118-5.207.065-.403.165-.896.249-1.309.04-.2.078-.382.105-.525.103-.547.158-.967.158-1.331 0-.198-.009-.373-.024-.526zm4.256 5.21l.013-.004a.079.079 0 01-.013.005z" fill="#fff"/></svg>