<svg width="40" height="40" viewBox="0 0 40 40" fill="none" xmlns="http://www.w3.org/2000/svg"><path d="M21.952 5H15c-3.143 0-4.714 0-5.69.976-.977.977-.977 2.548-.977 5.69v16.667c0 3.143 0 4.714.976 5.69C10.286 35 11.857 35 15 35h10c3.143 0 4.715 0 5.691-.976.976-.977.976-2.548.976-5.69v-13.62c0-.681 0-1.022-.127-1.328-.126-.306-.367-.547-.849-1.029l-6.38-6.38c-.482-.482-.723-.723-1.03-.85C22.974 5 22.634 5 21.953 5z" stroke="#4D4D4D" stroke-width="2.5"/><path d="M15 21.666h10m-10 6.668h6.667" stroke="#4D4D4D" stroke-width="2.5" stroke-linecap="round"/><path d="M21.667 5v6.667c0 1.571 0 2.357.488 2.845S23.43 15 25 15h6.667" stroke="#4D4D4D" stroke-width="2.5"/></svg>