<svg width="40" height="40" viewBox="0 0 40 40" fill="none" xmlns="http://www.w3.org/2000/svg"><path fill-rule="evenodd" clip-rule="evenodd" d="M20 35c8.837 0 16-7.163 16-16S28.837 3 20 3 4 10.163 4 19s7.163 16 16 16zm.52-12.751a1.52 1.52 0 00.426-.809c.105-.479.3-.95.584-1.415.285-.479.592-.913.921-1.302.345-.39.681-.787 1.01-1.19.33-.42.607-.884.832-1.393.225-.51.337-1.034.337-1.573 0-1.317-.42-2.343-1.258-3.077-.823-.748-1.917-1.123-3.28-1.123-1.437 0-2.724.494-3.862 1.483a.854.854 0 00-.293.651c0 .3.105.546.315.741.21.18.45.27.719.27h.022c.27-.015.524-.105.764-.27.629-.479 1.31-.719 2.044-.719.704 0 1.25.21 1.64.63.404.419.606.95.606 1.594 0 .42-.112.839-.337 1.258a7.03 7.03 0 01-.831 1.213c-.315.39-.637.786-.966 1.19-.33.404-.621.869-.876 1.393-.314.644-.472 1.228-.472 1.752 0 .27.105.501.315.696.24.225.532.337.876.337.3 0 .554-.112.764-.337zm-2 5.525c.345.345.772.517 1.28.517.495 0 .907-.172 1.236-.517.345-.344.517-.778.517-1.302 0-.54-.172-.989-.517-1.348a1.578 1.578 0 00-1.235-.561 1.7 1.7 0 00-1.28.539c-.33.359-.495.808-.495 1.347 0 .54.165.981.494 1.325z" fill="#B7EC5D"/></svg>