<svg width="40" height="40" viewBox="0 0 40 40" fill="none" xmlns="http://www.w3.org/2000/svg"><mask id="a" fill="#fff"><path fill-rule="evenodd" clip-rule="evenodd" d="M11 5a4 4 0 00-4 4v21a4 4 0 004 4h16a4 4 0 004-4V7.593c0-1.193.805-2.197 1.9-2.5A4.014 4.014 0 0032.037 5H11z"/></mask><path d="M32.9 5.093l.666 2.41-.128-4.851-.538 2.441zM9.5 9A1.5 1.5 0 0111 7.5v-5A6.5 6.5 0 004.5 9h5zm0 10.5V9h-5v10.5h5zm0 10.5V19.5h-5V30h5zm1.5 1.5A1.5 1.5 0 019.5 30h-5a6.5 6.5 0 006.5 6.5v-5zm16 0H11v5h16v-5zm1.5-1.5a1.5 1.5 0 01-1.5 1.5v5a6.5 6.5 0 006.5-6.5h-5zm5 0V17.185h-5V30h5zm0-12.815V7.593h-5v9.592h5zm0-9.592a.09.09 0 01.005-.031.096.096 0 01.062-.059l-1.333-4.82a5.094 5.094 0 00-3.734 4.91h5zM32.037 7.5c.115 0 .224.012.326.035l1.075-4.883a6.514 6.514 0 00-1.401-.152v5zM11 7.5h21.037v-5H11v5z" fill="#B7EC5D" mask="url(#a)"/><path d="M34.75 8.75V11a.75.75 0 01-.75.75h-4.25v-3a2.5 2.5 0 015 0z" stroke="#B7EC5D" stroke-width="2.5"/><path d="M13.5 12h11m-11 7h11m-11 7h5" stroke="#B7EC5D" stroke-width="2.5" stroke-linecap="round"/></svg>