<svg width="40" height="40" viewBox="0 0 40 40" fill="none" xmlns="http://www.w3.org/2000/svg"><g clip-path="url(#clip0_73_12303)"><path d="M31.756 27.134a1.25 1.25 0 00-2.317-.938l2.317.938zM20 32.559c-5.621 0-10.179-4.557-10.179-10.178h-2.5c0 7.002 5.677 12.678 12.679 12.678v-2.5zM9.821 22.38C9.821 16.758 14.38 12.2 20 12.2V9.7c-7.002 0-12.679 5.677-12.679 12.679h2.5zm19.618 3.816A10.182 10.182 0 0120 32.558v2.5c5.323 0 9.877-3.28 11.756-7.924l-2.317-.938zM20 12.201c4.27 0 7.928 2.63 9.44 6.362l2.316-.938C29.877 12.981 25.323 9.701 20 9.701v2.5z" fill="#B7EC5D"/><path d="M31.428 10.951v5.667a1 1 0 01-1 1h-5.666" stroke="#B7EC5D" stroke-width="2.5" stroke-linecap="round"/></g><defs><clipPath id="clip0_73_12303"><path fill="#fff" d="M0 0h40v40H0z"/></clipPath></defs></svg>