<svg width="50" height="50" viewBox="0 0 50 50" fill="none" xmlns="http://www.w3.org/2000/svg"><circle cx="25" cy="25" r="23.75" stroke="#B7EC5D" stroke-width="2.5"/><mask id="a" fill="#fff"><path fill-rule="evenodd" clip-rule="evenodd" d="M50 25c0 8.294-4.04 15.645-10.258 20.193.17-.872.258-1.773.258-2.693C40 34.492 33.284 28 25 28c-8.284 0-15 6.492-15 14.5 0 .92.089 1.82.258 2.693C4.04 40.646 0 33.295 0 25 0 11.193 11.193 0 25 0s25 11.193 25 25zm-25-1a8 8 0 100-16 8 8 0 000 16z"/></mask><path fill-rule="evenodd" clip-rule="evenodd" d="M50 25c0 8.294-4.04 15.645-10.258 20.193.17-.872.258-1.773.258-2.693C40 34.492 33.284 28 25 28c-8.284 0-15 6.492-15 14.5 0 .92.089 1.82.258 2.693C4.04 40.646 0 33.295 0 25 0 11.193 11.193 0 25 0s25 11.193 25 25zm-25-1a8 8 0 100-16 8 8 0 000 16z" fill="#B7EC5D"/><path d="M39.742 45.193l-2.454-.477-1.216 6.258 5.145-3.763-1.475-2.018zm-29.484 0l-1.475 2.018 5.145 3.763-1.216-6.258-2.454.477zm30.96 2.018C48.051 42.213 52.5 34.126 52.5 25h-5c0 7.463-3.631 14.078-9.234 18.175l2.951 4.036zM37.5 42.5c0 .76-.073 1.5-.212 2.216l4.908.954c.2-1.029.304-2.089.304-3.17h-5zM25 30.5c6.984 0 12.5 5.452 12.5 12h5c0-9.468-7.916-17-17.5-17v5zm-12.5 12c0-6.548 5.516-12 12.5-12v-5c-9.584 0-17.5 7.532-17.5 17h5zm.212 2.216A11.602 11.602 0 0112.5 42.5h-5c0 1.081.104 2.141.304 3.17l4.908-.954zM-2.5 25c0 9.126 4.448 17.213 11.283 22.211l2.951-4.036C6.131 39.078 2.5 32.463 2.5 25h-5zM25-2.5C9.812-2.5-2.5 9.812-2.5 25h5C2.5 12.574 12.574 2.5 25 2.5v-5zM52.5 25C52.5 9.812 40.188-2.5 25-2.5v5c12.426 0 22.5 10.074 22.5 22.5h5zm-22-9a5.5 5.5 0 01-5.5 5.5v5c5.799 0 10.5-4.701 10.5-10.5h-5zM25 10.5a5.5 5.5 0 015.5 5.5h5c0-5.799-4.701-10.5-10.5-10.5v5zM19.5 16a5.5 5.5 0 015.5-5.5v-5c-5.799 0-10.5 4.701-10.5 10.5h5zm5.5 5.5a5.5 5.5 0 01-5.5-5.5h-5c0 5.799 4.701 10.5 10.5 10.5v-5z" fill="#B7EC5D" mask="url(#a)"/></svg>