<svg width="50" height="50" viewBox="0 0 50 50" fill="none" xmlns="http://www.w3.org/2000/svg"><circle cx="25" cy="25" r="23.75" stroke="#B7EC5D" stroke-width="2.5"/><mask id="a" fill="#fff"><path fill-rule="evenodd" clip-rule="evenodd" d="M10.258 45.193A14.105 14.105 0 0110 42.5C10 34.492 16.716 28 25 28c8.284 0 15 6.492 15 14.5 0 .92-.089 1.82-.258 2.693A24.887 24.887 0 0125 50a24.887 24.887 0 01-14.742-4.807z"/></mask><path d="M10.258 45.193l-2.454.477.187.962.792.58 1.475-2.019zm29.484 0l1.475 2.018.792-.578.187-.963-2.454-.477zm-27.03-.477A11.602 11.602 0 0112.5 42.5h-5c0 1.081.104 2.141.304 3.17l4.908-.954zM12.5 42.5c0-6.548 5.516-12 12.5-12v-5c-9.584 0-17.5 7.532-17.5 17h5zm12.5-12c6.984 0 12.5 5.452 12.5 12h5c0-9.468-7.916-17-17.5-17v5zm12.5 12c0 .76-.073 1.5-.212 2.216l4.908.954c.2-1.029.304-2.089.304-3.17h-5zm.766.675A22.388 22.388 0 0125 47.5v5a27.39 27.39 0 0016.217-5.289l-2.951-4.036zM25 47.5a22.388 22.388 0 01-13.266-4.325l-2.951 4.036A27.387 27.387 0 0025 52.5v-5z" fill="#B7EC5D" mask="url(#a)"/><circle cx="25" cy="16" r="6.75" stroke="#B7EC5D" stroke-width="2.5"/></svg>